# xmcd
#
# Track frame offsets: 
#        150
#        14829
#        29161
#        41558
#        55758
#        66909
#        81097
#        93875
#        108730
#        127405
#        142613
#        155896
#        169398
#        183289
#        196581
#        206240
#        218895
#        232993
#        246033
#        259880
#
# Disc length: 3680 seconds
#
# Revision: 4
# Processed by: cddbd v1.5.2PL0 Copyright (c) Steve Scherf et al.
# Submitted via: ExactAudioCopy v0.99pb5
#
DISCID=2b0e5e14
DTITLE=Various Artist - Deutsche Schlager II - Vol 2 - 1950 - 1954
DYEAR=1900
DGENRE=Schlager
TTITLE0=Peter Alexander and Leila Negra - Pony Serenade
TTITLE1=Caterina Valente - Malaguena
TTITLE2=Rene Carol and Lonny Kellner - Verlieb dich noch heut
TTITLE3=Fred Bertelmann - Ganz Paris träumt von der Liebe
TTITLE4=Bibi Johns - Bimbo
TTITLE5=Gerhard Wendland - Das machen nur die Beine von Dolores
TTITLE6=Illo Schieder - Theo Theo
TTITLE7=Lale Andersen - Fernweh
TTITLE8=Die singenden Waldmusikanten - Am Waldesrand
TTITLE9=Rudi Schurike - Moulin Rouge
TTITLE10=Peter Alexander - Ich küsse ihre Hand Madame
TTITLE11=Gerhard Wendland  - Das Land der Verliebten
TTITLE12=Bibi Johns - In Barrabana
TTITLE13=Die Optimisten - Optimisten Boogie
TTITLE14=Illo Schieder - Sieben einsame Tage
TTITLE15=Evelyn Künneke - Bongo Boogie
TTITLE16=Lonny Kellner and Ilja Glusgal - Manhatten Boogie
TTITLE17=Peter Alexander - Fahr auf dem Zigeunerwagen
TTITLE18=Vico Torriani - Am Strande von Havanna
TTITLE19=Caterina Valente - Schwarze Engel
EXTD=
EXTT0=
EXTT1=
EXTT2=
EXTT3=
EXTT4=
EXTT5=
EXTT6=
EXTT7=
EXTT8=
EXTT9=
EXTT10=
EXTT11=
EXTT12=
EXTT13=
EXTT14=
EXTT15=
EXTT16=
EXTT17=
EXTT18=
EXTT19=
PLAYORDER=
